<svg width="10" height="18" viewBox="0 0 10 18" fill="none" xmlns="http://www.w3.org/2000/svg">
<path fill-rule="evenodd" clip-rule="evenodd" d="M8.83216 1.18077C8.88537 1.23793 8.92758 1.30583 8.95638 1.38058C8.98518 1.45534 9 1.53548 9 1.61641C9 1.69735 8.98518 1.77749 8.95638 1.85224C8.92758 1.927 8.88537 1.9949 8.83216 2.05205L2.3801 9.00016L8.83216 15.9483C8.88528 16.0055 8.92741 16.0734 8.95616 16.1481C8.9849 16.2229 8.9997 16.303 8.9997 16.3839C8.9997 16.4648 8.9849 16.5449 8.95616 16.6197C8.92741 16.6944 8.88528 16.7623 8.83216 16.8196C8.77905 16.8768 8.71599 16.9221 8.64659 16.9531C8.57719 16.9841 8.50281 17 8.4277 17C8.35258 17 8.2782 16.9841 8.2088 16.9531C8.1394 16.9221 8.07634 16.8768 8.02323 16.8196L1.16783 9.4358C1.11463 9.37865 1.07242 9.31074 1.04362 9.23599C1.01482 9.16124 0.999999 9.0811 0.999999 9.00016C0.999999 8.91923 1.01482 8.83909 1.04362 8.76433C1.07242 8.68958 1.11463 8.62168 1.16783 8.56452L8.02323 1.18077C8.0763 1.12347 8.13934 1.07801 8.20874 1.04699C8.27815 1.01597 8.35255 1 8.4277 1C8.50284 1 8.57725 1.01597 8.64665 1.04699C8.71606 1.07801 8.7791 1.12347 8.83216 1.18077V1.18077Z" fill="#C61324" stroke="#C61324"/>
</svg>
