<svg width="500" height="500" viewBox="0 0 500 500" fill="none" xmlns="http://www.w3.org/2000/svg">
<g clip-path="url(#clip0_498_1342)">
<rect width="500" height="500" fill="white"/>
<rect x="-31" y="-104" width="531.073" height="1274.57" rx="70.8097" fill="#C61324"/>
<path d="M242.221 1150.73C225.078 1150.73 209.612 1148.68 195.822 1144.58C182.406 1140.48 171.225 1135.45 162.281 1129.49C153.709 1123.53 146.256 1115.51 139.92 1105.45C133.957 1095.39 129.485 1086.45 126.503 1078.62C123.895 1070.79 121.659 1060.73 119.795 1048.43C118.304 1035.76 117.373 1026.26 117 1019.92C117 1013.21 117 1004.27 117 993.088V232.256C117 221.449 117 212.691 117 205.982C117.373 199.274 118.304 189.771 119.795 177.472C121.659 165.174 124.081 155.111 127.062 147.285C130.044 139.086 134.516 129.955 140.479 119.893C146.815 109.83 154.268 101.818 162.84 95.8546C171.412 89.8917 182.406 84.8605 195.822 80.7609C209.612 76.2888 225.078 74.0527 242.221 74.0527H248.371C265.514 74.0527 280.794 76.2888 294.211 80.7609C308 84.8605 319.18 89.8917 327.752 95.8546C336.324 101.818 343.591 109.83 349.554 119.893C355.89 129.955 360.548 139.086 363.53 147.285C366.511 155.111 368.747 165.174 370.238 177.472C372.101 189.771 373.033 199.274 373.033 205.982C373.406 212.691 373.592 221.449 373.592 232.256V993.088C373.592 1004.27 373.406 1013.21 373.033 1019.92C373.033 1026.26 372.101 1035.76 370.238 1048.43C368.747 1060.73 366.511 1070.79 363.53 1078.62C360.921 1086.45 356.449 1095.39 350.113 1105.45C344.15 1115.51 336.696 1123.53 327.752 1129.49C319.18 1135.45 308 1140.48 294.211 1144.58C280.794 1148.68 265.514 1150.73 248.371 1150.73H242.221ZM223.774 984.703C223.774 1004.83 225.078 1018.43 227.687 1025.51C230.296 1032.22 235.886 1035.57 244.457 1035.57H246.135C254.706 1035.2 260.296 1031.66 262.905 1024.95C265.514 1017.87 266.818 1004.46 266.818 984.703V241.201C266.818 221.076 265.514 207.659 262.905 200.951C260.296 193.87 254.706 190.143 246.135 189.771H244.457C235.886 190.143 230.296 193.87 227.687 200.951C225.078 207.659 223.774 221.076 223.774 241.201V984.703Z" fill="white"/>
</g>
<defs>
<clipPath id="clip0_498_1342">
<rect width="500" height="500" fill="white"/>
</clipPath>
</defs>
</svg>
