<svg width="604" height="425" viewBox="0 0 604 425" fill="none" xmlns="http://www.w3.org/2000/svg">
<path d="M288.627 372.031L54.5666 233.456C50.8779 231.272 48.5405 227.374 48.3516 223.091L47.4048 201.629C47.1974 196.928 49.6072 192.498 53.6666 190.118L288.986 52.1556C296.735 47.6122 306.309 47.5021 314.161 51.8661L551.066 183.534C555.045 185.746 557.535 189.919 557.592 194.472L557.937 222.044C557.994 226.608 555.597 230.851 551.658 233.157L314.391 372.093C306.429 376.755 296.566 376.731 288.627 372.031Z" fill="#A0000F"/>
<path d="M288.681 387.207L38.9758 237.637C35.2318 235.395 32.9022 231.386 32.8074 227.023L32.1612 197.303C32.0616 192.723 34.4379 188.444 38.3789 186.108L289.095 37.4681C296.891 32.8462 306.559 32.7304 314.463 37.1642L564.018 177.145C567.98 179.367 570.453 183.538 570.501 188.081L570.922 227.268C570.97 231.79 568.61 235.996 564.725 238.311L314.721 387.238C306.696 392.019 296.694 392.007 288.681 387.207Z" stroke="url(#paint0_linear_460_4254)" stroke-width="2.11578"/>
<path d="M287.826 416.982L7.58759 246.202C3.84399 243.92 1.54242 239.869 1.49976 235.485L1.07031 191.383C1.02673 186.908 3.34204 182.741 7.16449 180.415L290.66 7.87625C298.632 3.02446 308.623 2.9371 316.678 7.64876L595.715 170.857C599.607 173.134 602 177.305 602 181.815V235.939C602 240.384 599.675 244.505 595.871 246.804L314.169 417.031C306.066 421.928 295.911 421.909 287.826 416.982Z" stroke="url(#paint1_linear_460_4254)" stroke-width="2.11578"/>
<path d="M314.241 51.8788L550.832 183.546C559.405 188.316 559.557 200.593 551.105 205.574L314.222 345.21C306.392 349.825 296.692 349.903 288.789 345.414L54.0266 212.069C45.528 207.242 45.4435 195.024 53.8745 190.08L289.051 52.1629C296.805 47.6154 306.386 47.5074 314.241 51.8788Z" fill="#C61324"/>
<path d="M550.061 184.932L313.469 53.2653C306.105 49.1672 297.123 49.2685 289.854 53.5317L54.6772 191.449C47.3002 195.775 47.3741 206.465 54.8103 210.689L289.573 344.034C296.982 348.243 306.076 348.17 313.416 343.843L550.3 204.207C557.695 199.848 557.561 189.107 550.061 184.932Z" stroke="url(#paint2_linear_460_4254)" stroke-opacity="0.25" stroke-width="3.17368"/>
<path d="M249.569 277.71L188.676 243.556C185.815 241.951 184 238.971 183.885 235.694L183.201 216.111C183.082 212.681 184.842 209.459 187.794 207.708L340.634 117.023C346.541 113.518 353.891 113.518 359.799 117.023L419.975 152.729L434.874 164.048C440.186 168.083 439.714 176.215 433.971 179.608L268.309 277.499C262.547 280.904 255.407 280.985 249.569 277.71Z" fill="black"/>
<path d="M233.061 274.888L176.841 241.481C174.094 239.849 172.365 236.931 172.254 233.737L171.566 214.044C171.446 210.591 173.231 207.351 176.214 205.609L346.107 106.382C351.92 102.987 359.105 102.963 364.94 106.319L421.614 138.914C424.527 140.589 426.322 143.693 426.322 147.053V165.654C426.322 168.959 424.584 172.022 421.745 173.716L252.279 274.869C246.362 278.401 238.985 278.408 233.061 274.888Z" fill="#898989" stroke="black" stroke-width="0.782449"/>
<path d="M364.653 102.885L421.449 134.211C427.812 137.72 427.947 146.818 421.692 150.515L251.507 251.11C245.663 254.564 238.41 254.596 232.537 251.192L176.825 218.912C170.605 215.308 170.577 206.338 176.773 202.694L346.064 103.141C351.781 99.7799 358.846 99.6825 364.653 102.885Z" fill="white" stroke="black" stroke-width="0.782449"/>
<path d="M239.478 206.635L350.817 140.864C352.786 139.7 355.254 139.716 357.221 140.886C359.265 142.101 359.288 145.08 357.239 146.288L245.846 211.976C243.701 213.241 240.992 213.017 239.084 211.416C237.53 210.113 237.732 207.666 239.478 206.635Z" fill="#9E9999" stroke="black" stroke-width="0.782449"/>
<ellipse cx="303.078" cy="272.799" rx="26.9762" ry="15.3394" fill="black"/>
<ellipse cx="300.433" cy="252.7" rx="24.3315" ry="15.3394" fill="black"/>
<path d="M269.755 234.556H269.836L269.909 234.523C270.417 234.29 271.428 234.125 272.889 234.037C274.329 233.951 276.151 233.942 278.236 233.991C282.405 234.09 287.602 234.42 292.862 234.817C296.719 235.109 300.607 235.436 304.142 235.733C305.427 235.841 306.665 235.945 307.838 236.042C312.152 236.399 315.61 236.663 317.269 236.673C317.901 237.014 318.355 237.602 318.672 238.772C319.007 240.005 319.172 241.833 319.238 244.576C319.307 247.457 319.267 251.299 319.214 256.448C319.165 261.1 319.106 266.818 319.106 273.858C319.106 277.902 316.219 281.637 311.392 284.382C306.575 287.121 299.897 288.827 292.5 288.827C285.102 288.827 278.424 287.121 273.608 284.382C268.78 281.637 265.894 277.902 265.894 273.858C265.894 269.392 265.756 264.899 265.625 260.629C265.613 260.214 265.6 259.802 265.588 259.391C265.447 254.753 265.332 250.416 265.431 246.693C265.53 242.961 265.844 239.883 266.545 237.748C266.895 236.682 267.332 235.88 267.861 235.349C268.38 234.828 268.998 234.556 269.755 234.556Z" fill="#898989" stroke="black" stroke-width="0.740524"/>
<path d="M319.084 241.063C319.084 245.097 316.205 248.826 311.381 251.569C306.569 254.306 299.894 256.011 292.5 256.011C285.106 256.011 278.431 254.306 273.618 251.569C268.794 248.826 265.915 245.097 265.915 241.063C265.915 237.029 268.794 233.3 273.618 230.557C278.431 227.82 285.106 226.115 292.5 226.115C299.894 226.115 306.569 227.82 311.381 230.557C316.205 233.3 319.084 237.029 319.084 241.063Z" fill="white" stroke="black" stroke-width="0.78284"/>
<defs>
<linearGradient id="paint0_linear_460_4254" x1="307.692" y1="88.6799" x2="306.677" y2="395" gradientUnits="userSpaceOnUse">
<stop stop-color="#0A0A0A"/>
<stop offset="1" stop-color="#202020"/>
</linearGradient>
<linearGradient id="paint1_linear_460_4254" x1="307.981" y1="68.3259" x2="306.801" y2="425" gradientUnits="userSpaceOnUse">
<stop stop-color="#0A0A0A"/>
<stop offset="1" stop-color="#202020"/>
</linearGradient>
<linearGradient id="paint2_linear_460_4254" x1="288.267" y1="211.971" x2="302.549" y2="352.671" gradientUnits="userSpaceOnUse">
<stop stop-color="white" stop-opacity="0"/>
<stop offset="1" stop-color="white"/>
</linearGradient>
</defs>
</svg>
