<svg width="188" height="231" viewBox="0 0 188 231" fill="none" xmlns="http://www.w3.org/2000/svg">
<path d="M40.3255 72.4915C40.3255 59.1058 43.7798 49.2464 50.6886 42.9134C57.7413 36.4365 67.1688 33.198 78.9713 33.198C91.0616 33.198 100.633 36.5084 107.686 43.1293C114.882 49.6063 118.481 59.3937 118.481 72.4915V149.135C118.481 162.377 114.882 172.309 107.686 178.929C100.633 185.406 91.0616 188.645 78.9713 188.645C67.1688 188.645 57.7413 185.406 50.6886 178.929C43.7798 172.452 40.3255 162.521 40.3255 149.135V72.4915ZM70.5512 151.294C70.5512 155.468 71.4148 158.419 73.142 160.146C75.0131 161.729 77.1002 162.521 79.4031 162.521C81.8499 162.521 83.9369 161.729 85.6641 160.146C87.3913 158.419 88.2549 155.468 88.2549 151.294V70.5484C88.2549 66.3744 87.3913 63.4957 85.6641 61.9125C83.9369 60.3292 81.8499 59.5376 79.4031 59.5376C77.1002 59.5376 75.0131 60.3292 73.142 61.9125C71.4148 63.4957 70.5512 66.3744 70.5512 70.5484V151.294ZM125.941 171.373C125.941 166.335 127.236 162.449 129.827 159.714C132.418 156.836 136.232 155.396 141.27 155.396C146.163 155.396 149.906 156.836 152.496 159.714C155.231 162.593 156.599 166.551 156.599 171.589C156.599 176.626 155.303 180.585 152.712 183.463C150.122 186.198 146.307 187.565 141.27 187.565C136.232 187.565 132.418 186.198 129.827 183.463C127.236 180.585 125.941 176.555 125.941 171.373Z" fill="white"/>
</svg>
