<svg width="26" height="32" viewBox="0 0 26 32" fill="none" xmlns="http://www.w3.org/2000/svg">
<rect width="26" height="32" rx="4" fill="#C61324"/>
<path d="M5.48 10.16C5.48 8.3 5.96 6.93 6.92 6.05C7.9 5.15 9.21 4.7 10.85 4.7C12.53 4.7 13.86 5.16 14.84 6.08C15.84 6.98 16.34 8.34 16.34 10.16V20.81C16.34 22.65 15.84 24.03 14.84 24.95C13.86 25.85 12.53 26.3 10.85 26.3C9.21 26.3 7.9 25.85 6.92 24.95C5.96 24.05 5.48 22.67 5.48 20.81V10.16ZM9.68 21.11C9.68 21.69 9.8 22.1 10.04 22.34C10.3 22.56 10.59 22.67 10.91 22.67C11.25 22.67 11.54 22.56 11.78 22.34C12.02 22.1 12.14 21.69 12.14 21.11V9.89C12.14 9.31 12.02 8.91 11.78 8.69C11.54 8.47 11.25 8.36 10.91 8.36C10.59 8.36 10.3 8.47 10.04 8.69C9.8 8.91 9.68 9.31 9.68 9.89V21.11ZM17.3766 23.9C17.3766 23.2 17.5566 22.66 17.9166 22.28C18.2766 21.88 18.8066 21.68 19.5066 21.68C20.1866 21.68 20.7066 21.88 21.0666 22.28C21.4466 22.68 21.6366 23.23 21.6366 23.93C21.6366 24.63 21.4566 25.18 21.0966 25.58C20.7366 25.96 20.2066 26.15 19.5066 26.15C18.8066 26.15 18.2766 25.96 17.9166 25.58C17.5566 25.18 17.3766 24.62 17.3766 23.9Z" fill="white"/>
</svg>
