<svg width="372" height="458" viewBox="0 0 372 458" fill="none" xmlns="http://www.w3.org/2000/svg">
<rect x="1.40371" y="0.787495" width="370.081" height="455.722" rx="56.5786" stroke="white" stroke-width="1.03104"/>
<mask id="path-2-outside-1_710_8555" maskUnits="userSpaceOnUse" x="77.2559" y="62.6396" width="234" height="312" fill="black">
<rect fill="white" x="77.2559" y="62.6396" width="234" height="312"/>
<path d="M79.1072 142.547C79.1072 115.998 85.9584 96.4434 99.661 83.8827C113.649 71.0365 132.347 64.6134 155.756 64.6134C179.736 64.6134 198.719 71.1793 212.707 84.3109C226.981 97.1571 234.118 116.569 234.118 142.547V294.56C234.118 320.823 226.981 340.521 212.707 353.652C198.719 366.499 179.736 372.922 155.756 372.922C132.347 372.922 113.649 366.499 99.661 353.652C85.9584 340.806 79.1072 321.109 79.1072 294.56V142.547ZM139.056 298.842C139.056 307.121 140.769 312.973 144.194 316.399C147.906 319.539 152.045 321.109 156.612 321.109C161.465 321.109 165.605 319.539 169.03 316.399C172.456 312.973 174.169 307.121 174.169 298.842V138.693C174.169 130.414 172.456 124.705 169.03 121.565C165.605 118.425 161.465 116.855 156.612 116.855C152.045 116.855 147.906 118.425 144.194 121.565C140.769 124.705 139.056 130.414 139.056 138.693V298.842ZM248.914 338.665C248.914 328.674 251.483 320.966 256.622 315.542C261.76 309.833 269.325 306.978 279.317 306.978C289.023 306.978 296.445 309.833 301.584 315.542C307.007 321.252 309.719 329.102 309.719 339.093C309.719 349.085 307.15 356.935 302.012 362.645C296.873 368.069 289.308 370.781 279.317 370.781C269.325 370.781 261.76 368.069 256.622 362.645C251.483 356.935 248.914 348.942 248.914 338.665Z"/>
</mask>
<path d="M99.661 83.8827L100.358 84.6428L100.358 84.6421L99.661 83.8827ZM212.707 84.3109L212.002 85.0626L212.01 85.07L212.018 85.0773L212.707 84.3109ZM212.707 353.652L213.405 354.412L213.405 354.411L212.707 353.652ZM99.661 353.652L98.9558 354.405L98.9636 354.412L99.661 353.652ZM144.194 316.399L143.465 317.128L143.496 317.158L143.528 317.186L144.194 316.399ZM169.03 316.399L169.727 317.159L169.744 317.143L169.759 317.128L169.03 316.399ZM144.194 121.565L143.528 120.778L143.513 120.791L143.498 120.805L144.194 121.565ZM80.1382 142.547C80.1382 116.161 86.9463 96.9366 100.358 84.6428L98.9643 83.1227C84.9706 95.9502 78.0761 115.836 78.0761 142.547H80.1382ZM100.358 84.6421C114.115 72.009 132.543 65.6445 155.756 65.6445V63.5824C132.152 63.5824 113.184 70.0641 98.9636 83.1233L100.358 84.6421ZM155.756 65.6445C179.542 65.6445 198.25 72.1524 212.002 85.0626L213.413 83.5592C199.189 70.2061 179.929 63.5824 155.756 63.5824V65.6445ZM212.018 85.0773C226.005 97.6659 233.087 116.754 233.087 142.547H235.149C235.149 116.385 227.957 96.6483 213.397 83.5445L212.018 85.0773ZM233.087 142.547V294.56H235.149V142.547H233.087ZM233.087 294.56C233.087 320.641 226.003 340.019 212.009 352.894L213.405 354.411C227.959 341.022 235.149 321.005 235.149 294.56H233.087ZM212.01 352.893C198.258 365.522 179.548 371.891 155.756 371.891V373.953C179.923 373.953 199.18 367.475 213.405 354.412L212.01 352.893ZM155.756 371.891C132.543 371.891 114.115 365.526 100.358 352.893L98.9636 354.412C113.184 367.471 132.152 373.953 155.756 373.953V371.891ZM100.366 352.9C86.9455 340.318 80.1382 320.944 80.1382 294.56H78.0761C78.0761 321.273 84.9714 341.294 98.9559 354.405L100.366 352.9ZM80.1382 294.56V142.547H78.0761V294.56H80.1382ZM138.025 298.842C138.025 307.213 139.748 313.41 143.465 317.128L144.924 315.669C141.79 312.536 140.087 307.029 140.087 298.842H138.025ZM143.528 317.186C147.413 320.472 151.785 322.14 156.612 322.14V320.078C152.305 320.078 148.398 318.605 144.86 315.611L143.528 317.186ZM156.612 322.14C161.711 322.14 166.102 320.481 169.727 317.159L168.334 315.638C165.107 318.596 161.22 320.078 156.612 320.078V322.14ZM169.759 317.128C173.477 313.41 175.2 307.213 175.2 298.842H173.138C173.138 307.029 171.435 312.536 168.301 315.669L169.759 317.128ZM175.2 298.842V138.693H173.138V298.842H175.2ZM175.2 138.693C175.2 130.335 173.483 124.247 169.727 120.805L168.334 122.325C171.43 125.163 173.138 130.493 173.138 138.693H175.2ZM169.727 120.805C166.102 117.482 161.711 115.824 156.612 115.824V117.886C161.22 117.886 165.107 119.367 168.334 122.325L169.727 120.805ZM156.612 115.824C151.785 115.824 147.413 117.491 143.528 120.778L144.86 122.352C148.398 119.358 152.305 117.886 156.612 117.886V115.824ZM143.498 120.805C139.742 124.247 138.025 130.335 138.025 138.693H140.087C140.087 130.493 141.795 125.163 144.891 122.325L143.498 120.805ZM138.025 138.693V298.842H140.087V138.693H138.025ZM256.622 315.542L257.37 316.251L257.379 316.242L257.388 316.232L256.622 315.542ZM301.584 315.542L300.817 316.232L300.826 316.242L300.836 316.252L301.584 315.542ZM302.012 362.645L302.76 363.354L302.769 363.344L302.778 363.334L302.012 362.645ZM256.622 362.645L255.856 363.334L255.864 363.344L255.873 363.354L256.622 362.645ZM249.945 338.665C249.945 328.846 252.468 321.426 257.37 316.251L255.873 314.833C250.499 320.506 247.883 328.501 247.883 338.665H249.945ZM257.388 316.232C262.277 310.8 269.524 308.009 279.317 308.009V305.947C269.126 305.947 261.244 308.865 255.856 314.852L257.388 316.232ZM279.317 308.009C288.813 308.009 295.923 310.794 300.817 316.232L302.35 314.852C296.967 308.871 289.233 305.947 279.317 305.947V308.009ZM300.836 316.252C306.033 321.722 308.688 329.292 308.688 339.093H310.751C310.751 328.912 307.982 320.781 302.331 314.832L300.836 316.252ZM308.688 339.093C308.688 348.909 306.167 356.486 301.245 361.955L302.778 363.334C308.133 357.385 310.751 349.261 310.751 339.093H308.688ZM301.263 361.936C296.379 367.092 289.125 369.75 279.317 369.75V371.812C289.492 371.812 297.368 369.046 302.76 363.354L301.263 361.936ZM279.317 369.75C269.509 369.75 262.255 367.092 257.37 361.936L255.873 363.354C261.266 369.046 269.142 371.812 279.317 371.812V369.75ZM257.388 361.955C252.471 356.491 249.945 348.775 249.945 338.665H247.883C247.883 349.109 250.496 357.38 255.856 363.334L257.388 361.955Z" fill="white" mask="url(#path-2-outside-1_710_8555)"/>
</svg>
