<svg width="188" height="231" viewBox="0 0 188 231" fill="none" xmlns="http://www.w3.org/2000/svg">
<rect x="1.14811" y="0.762364" width="186.592" height="229.772" rx="28.5265" stroke="white" stroke-width="0.519845"/>
<mask id="path-2-outside-1_710_8555" maskUnits="userSpaceOnUse" x="38.8711" y="32.4858" width="119" height="157" fill="black">
<rect fill="white" x="38.8711" y="32.4858" width="119" height="157"/>
<path d="M40.3255 72.4915C40.3255 59.1058 43.7798 49.2464 50.6886 42.9134C57.7413 36.4365 67.1688 33.198 78.9713 33.198C91.0616 33.198 100.633 36.5084 107.686 43.1293C114.882 49.6063 118.481 59.3937 118.481 72.4915V149.135C118.481 162.377 114.882 172.309 107.686 178.929C100.633 185.406 91.0616 188.645 78.9713 188.645C67.1688 188.645 57.7413 185.406 50.6886 178.929C43.7798 172.452 40.3255 162.521 40.3255 149.135V72.4915ZM70.5512 151.294C70.5512 155.468 71.4148 158.419 73.142 160.146C75.0131 161.729 77.1002 162.521 79.4031 162.521C81.8499 162.521 83.9369 161.729 85.6641 160.146C87.3913 158.419 88.2549 155.468 88.2549 151.294V70.5484C88.2549 66.3744 87.3913 63.4957 85.6641 61.9125C83.9369 60.3292 81.8499 59.5376 79.4031 59.5376C77.1002 59.5376 75.0131 60.3292 73.142 61.9125C71.4148 63.4957 70.5512 66.3744 70.5512 70.5484V151.294ZM125.941 171.373C125.941 166.335 127.236 162.449 129.827 159.714C132.418 156.836 136.232 155.396 141.27 155.396C146.163 155.396 149.906 156.836 152.496 159.714C155.231 162.593 156.599 166.551 156.599 171.589C156.599 176.626 155.303 180.585 152.712 183.463C150.122 186.198 146.307 187.565 141.27 187.565C136.232 187.565 132.418 186.198 129.827 183.463C127.236 180.585 125.941 176.555 125.941 171.373Z"/>
</mask>
<path d="M50.6886 42.9134L51.0399 43.2966L51.0402 43.2963L50.6886 42.9134ZM107.686 43.1293L107.33 43.5084L107.338 43.5157L107.686 43.1293ZM107.686 178.929L108.037 179.312L108.038 179.312L107.686 178.929ZM50.6886 178.929L50.333 179.309L50.337 179.312L50.6886 178.929ZM73.142 160.146L72.7744 160.514L72.7897 160.529L72.8062 160.543L73.142 160.146ZM85.6641 160.146L86.0154 160.529L86.0237 160.522L86.0317 160.514L85.6641 160.146ZM73.142 61.9125L72.8062 61.5156L72.7984 61.5223L72.7907 61.5293L73.142 61.9125ZM40.8453 72.4915C40.8453 59.1878 44.2779 49.4951 51.0399 43.2966L50.3373 42.5302C43.2818 48.9978 39.8056 59.0238 39.8056 72.4915H40.8453ZM51.0402 43.2963C57.9759 36.9268 67.2673 33.7179 78.9713 33.7179V32.6782C67.0703 32.6782 57.5066 35.9462 50.337 42.5306L51.0402 43.2963ZM78.9713 33.7179C90.9639 33.7179 100.396 36.9991 107.33 43.5083L108.042 42.7503C100.87 36.0178 91.1592 32.6782 78.9713 32.6782V33.7179ZM107.338 43.5157C114.39 49.8628 117.961 59.4867 117.961 72.4915H119.001C119.001 59.3007 115.374 49.3498 108.034 42.7429L107.338 43.5157ZM117.961 72.4915V149.135H119.001V72.4915H117.961ZM117.961 149.135C117.961 162.285 114.389 172.056 107.334 178.547L108.038 179.312C115.375 172.561 119.001 162.469 119.001 149.135H117.961ZM107.334 178.547C100.401 184.914 90.9669 188.125 78.9713 188.125V189.165C91.1563 189.165 100.865 185.899 108.037 179.312L107.334 178.547ZM78.9713 188.125C67.2673 188.125 57.9759 184.916 51.0402 178.547L50.337 179.312C57.5066 185.897 67.0703 189.165 78.9713 189.165V188.125ZM51.0441 178.55C44.2775 172.206 40.8453 162.438 40.8453 149.135H39.8056C39.8056 162.604 43.2822 172.698 50.333 179.309L51.0441 178.55ZM40.8453 149.135V72.4915H39.8056V149.135H40.8453ZM70.0314 151.294C70.0314 155.515 70.9 158.639 72.7744 160.514L73.5096 159.779C71.9296 158.199 71.0711 155.422 71.0711 151.294H70.0314ZM72.8062 160.543C74.7647 162.2 76.9689 163.041 79.4031 163.041V162.001C77.2314 162.001 75.2616 161.259 73.4778 159.749L72.8062 160.543ZM79.4031 163.041C81.9736 163.041 84.1878 162.205 86.0154 160.529L85.3128 159.763C83.6861 161.254 81.7262 162.001 79.4031 162.001V163.041ZM86.0317 160.514C87.9061 158.639 88.7747 155.515 88.7747 151.294H87.7351C87.7351 155.422 86.8765 158.199 85.2965 159.779L86.0317 160.514ZM88.7747 151.294V70.5484H87.7351V151.294H88.7747ZM88.7747 70.5484C88.7747 66.3345 87.9089 63.265 86.0154 61.5293L85.3129 62.2957C86.8737 63.7265 87.7351 66.4142 87.7351 70.5484H88.7747ZM86.0154 61.5293C84.1878 59.854 81.9736 59.0178 79.4031 59.0178V60.0575C81.7262 60.0575 83.6861 60.8045 85.3129 62.2957L86.0154 61.5293ZM79.4031 59.0178C76.9689 59.0178 74.7647 59.8585 72.8062 61.5156L73.4778 62.3093C75.2616 60.8 77.2314 60.0575 79.4031 60.0575V59.0178ZM72.7907 61.5293C70.8973 63.265 70.0314 66.3345 70.0314 70.5484H71.0711C71.0711 66.4142 71.9324 63.7265 73.4933 62.2957L72.7907 61.5293ZM70.0314 70.5484V151.294H71.0711V70.5484H70.0314ZM129.827 159.714L130.205 160.072L130.214 160.062L129.827 159.714ZM152.496 159.714L152.11 160.062L152.12 160.072L152.496 159.714ZM152.712 183.463L153.09 183.821L153.099 183.811L152.712 183.463ZM129.827 183.463L129.441 183.811L129.45 183.821L129.827 183.463ZM126.461 171.373C126.461 166.422 127.733 162.681 130.205 160.072L129.45 159.357C126.74 162.217 125.421 166.248 125.421 171.373H126.461ZM130.214 160.062C132.678 157.324 136.333 155.916 141.27 155.916V154.877C136.132 154.877 132.158 156.348 129.441 159.367L130.214 160.062ZM141.27 155.916C146.058 155.916 149.643 157.321 152.11 160.062L152.883 159.367C150.169 156.351 146.269 154.877 141.27 154.877V155.916ZM152.12 160.072C154.74 162.83 156.079 166.647 156.079 171.589H157.118C157.118 166.455 155.723 162.356 152.873 159.356L152.12 160.072ZM156.079 171.589C156.079 176.538 154.808 180.358 152.326 183.116L153.099 183.811C155.799 180.811 157.118 176.715 157.118 171.589H156.079ZM152.335 183.106C149.872 185.705 146.215 187.045 141.27 187.045V188.085C146.4 188.085 150.371 186.691 153.09 183.821L152.335 183.106ZM141.27 187.045C136.325 187.045 132.667 185.705 130.205 183.106L129.45 183.821C132.169 186.691 136.139 188.085 141.27 188.085V187.045ZM130.214 183.116C127.734 180.361 126.461 176.47 126.461 171.373H125.421C125.421 176.639 126.739 180.809 129.441 183.811L130.214 183.116Z" fill="white" mask="url(#path-2-outside-1_710_8555)"/>
</svg>
